<svg width="35" height="34" viewBox="0 0 35 34" fill="none" xmlns="http://www.w3.org/2000/svg">
<path opacity="0.8" d="M26.9346 1.10925C28.7523 1.11129 30.495 1.83427 31.7803 3.11958C33.0656 4.40489 33.7886 6.14756 33.7906 7.96526V26.1685C33.7886 27.9862 33.0656 29.7288 31.7803 31.0142C30.495 32.2995 28.7523 33.0224 26.9346 33.0245H8.73137C6.91367 33.0224 5.171 32.2995 3.88569 31.0142C2.60038 29.7288 1.8774 27.9862 1.87537 26.1685V7.96526C1.8774 6.14756 2.60038 4.40489 3.88569 3.11958C5.171 1.83427 6.91367 1.11129 8.73137 1.10925H26.9346ZM26.9346 0.147949H8.73137C7.70472 0.147697 6.68807 0.349725 5.73952 0.742492C4.79097 1.13526 3.92909 1.71107 3.20314 2.43702C2.47718 3.16298 1.90137 4.02485 1.50861 4.97341C1.11584 5.92196 0.91381 6.9386 0.914063 7.96526V26.1685C0.91381 27.1951 1.11584 28.2118 1.50861 29.1603C1.90137 30.1089 2.47718 30.9708 3.20314 31.6967C3.92909 32.4227 4.79097 32.9985 5.73952 33.3912C6.68807 33.784 7.70472 33.986 8.73137 33.9858H26.9346C27.9612 33.986 28.9779 33.784 29.9264 33.3912C30.875 32.9985 31.7369 32.4227 32.4628 31.6967C33.1888 30.9708 33.7646 30.1089 34.1574 29.1603C34.5501 28.2118 34.7522 27.1951 34.7519 26.1685V7.96526C34.7522 6.9386 34.5501 5.92196 34.1574 4.97341C33.7646 4.02485 33.1888 3.16298 32.4628 2.43702C31.7369 1.71107 30.875 1.13526 29.9264 0.742492C28.9779 0.349725 27.9612 0.147697 26.9346 0.147949Z" fill="#595959"/>
<path opacity="0.8" d="M12.2439 23.1443H10.3213C10.2537 23.1474 10.1861 23.1367 10.1228 23.1129C10.0594 23.089 10.0016 23.0525 9.95281 23.0055C9.90404 22.9585 9.86536 22.9021 9.83914 22.8397C9.81292 22.7773 9.7997 22.7102 9.8003 22.6425V11.3568C9.79816 11.2898 9.80978 11.2231 9.83443 11.1608C9.85909 11.0985 9.89626 11.0419 9.94364 10.9945C9.99103 10.9471 10.0476 10.9099 10.1099 10.8853C10.1723 10.8606 10.239 10.849 10.3059 10.8511C11.1769 10.8281 12.3035 10.8165 13.6455 10.8165C15.3336 10.8165 16.6006 11.2145 17.4157 11.997C17.8145 12.3711 18.1303 12.8246 18.3429 13.3283C18.5555 13.832 18.6602 14.3747 18.65 14.9213C18.65 16.3536 18.129 17.438 17.0985 18.1455C16.1161 18.8223 14.8721 19.1645 13.4033 19.1645H12.7669V22.6252C12.7688 22.6942 12.7565 22.7628 12.7308 22.8269C12.7052 22.891 12.6666 22.9492 12.6176 22.9978C12.5686 23.0464 12.5102 23.0845 12.4459 23.1097C12.3817 23.1349 12.3129 23.1467 12.2439 23.1443ZM10.5693 22.3752H11.9978V18.3954H13.4109C14.7202 18.3954 15.8181 18.0974 16.6794 17.511C17.4984 16.9477 17.8964 16.1018 17.8964 14.9213C17.9073 14.478 17.8241 14.0375 17.652 13.6288C17.48 13.2202 17.2232 12.8527 16.8986 12.5507C16.2314 11.9105 15.1432 11.5894 13.6609 11.5894C12.4516 11.5894 11.4191 11.5894 10.5847 11.6183L10.5693 22.3752ZM10.3348 11.6202H10.3156C10.3156 11.6202 10.3213 11.6202 10.3348 11.6202ZM13.5071 17.538C13.1138 17.5501 12.7202 17.5373 12.3285 17.4995L11.9978 17.4514V12.4777H12.5996H13.0533C13.0533 12.4777 13.4379 12.4777 13.6455 12.4777C14.5338 12.4777 15.2336 12.6968 15.7238 13.1275C16.2141 13.5582 16.4929 14.1984 16.4929 14.9905C16.4929 15.8922 16.1968 16.5593 15.6123 16.9746C14.9867 17.3778 14.2505 17.5748 13.5071 17.538ZM12.7669 16.7689H13.5071C14.0912 16.7978 14.6698 16.6439 15.1624 16.3286C15.5354 16.0633 15.7181 15.6192 15.7181 14.9828C15.7181 14.406 15.5547 13.9927 15.2182 13.6966C14.8817 13.4005 14.3415 13.2217 13.6455 13.2217C13.4532 13.2217 13.261 13.2217 13.0687 13.2217C12.9534 13.2217 12.8495 13.2217 12.7592 13.2217L12.7669 16.7689Z" fill="#595959"/>
<path opacity="0.8" d="M22.1761 23.3173C21.1091 23.3173 20.2151 23.125 19.5191 22.7271C19.4191 22.6827 19.3348 22.6093 19.2772 22.5164C19.2196 22.4234 19.1913 22.3153 19.1961 22.206V20.5968C19.1934 20.5119 19.2133 20.4278 19.2538 20.3531C19.2944 20.2784 19.3541 20.2159 19.4268 20.1719C19.5061 20.1231 19.5987 20.1005 19.6916 20.1074C19.7845 20.1143 19.8728 20.1503 19.944 20.2104C20.5632 20.6903 21.3235 20.9526 22.1069 20.9563C22.3527 20.9735 22.5985 20.9216 22.8163 20.8064C22.8617 20.7837 22.8999 20.7488 22.9267 20.7057C22.9536 20.6626 22.9679 20.613 22.9682 20.5622C22.9702 20.4989 22.9586 20.4359 22.934 20.3775C22.9095 20.3191 22.8726 20.2667 22.8259 20.2238C22.749 20.1508 22.5337 19.9931 21.9339 19.7624C20.9437 19.3779 20.2631 18.9684 19.8555 18.5069C19.4219 18.0082 19.1925 17.3641 19.2134 16.7035C19.2075 16.308 19.2888 15.916 19.4516 15.5554C19.6145 15.1949 19.8548 14.8746 20.1555 14.6175C20.7668 14.0696 21.6339 13.7927 22.7298 13.7927C23.7334 13.7927 24.4967 13.9312 25.0639 14.2138L25.0908 14.2272C25.1822 14.2866 25.2559 14.3696 25.3039 14.4674C25.352 14.5652 25.3727 14.6742 25.3638 14.7829V16.2191C25.3709 16.3117 25.3515 16.4044 25.3079 16.4864C25.2644 16.5684 25.1984 16.6364 25.1177 16.6824C25.0384 16.7233 24.9492 16.7408 24.8604 16.733C24.7716 16.7252 24.6868 16.6923 24.6159 16.6382C24.0728 16.2925 23.4428 16.1078 22.799 16.1056C22.5718 16.0864 22.344 16.1359 22.1453 16.2479C22.1045 16.2723 22.0704 16.3066 22.0462 16.3475C22.0221 16.3885 22.0085 16.4349 22.0069 16.4824C22.0073 16.5336 22.0186 16.5842 22.0402 16.6306C22.0617 16.677 22.093 16.7183 22.1319 16.7516C22.2011 16.8189 22.4107 16.9689 23.0278 17.215C24.0449 17.5995 24.7582 18.0205 25.1811 18.4762C25.6427 18.9785 25.8885 19.642 25.8656 20.3238C25.8769 20.7449 25.7891 21.1628 25.6095 21.5438C25.4298 21.9248 25.1633 22.2583 24.8312 22.5175C24.1775 23.0462 23.2758 23.3173 22.1761 23.3173ZM19.9651 22.0945C20.6549 22.4215 21.4133 22.5771 22.1761 22.5483C23.097 22.5483 23.8276 22.3349 24.3487 21.9157C24.5915 21.7286 24.7861 21.4862 24.9162 21.2086C25.0463 20.931 25.1081 20.6263 25.0965 20.32C25.1081 20.0797 25.0722 19.8395 24.9907 19.6131C24.9092 19.3868 24.7838 19.1788 24.6217 19.0011C24.2775 18.6358 23.6469 18.2743 22.7471 17.9282C22.1703 17.6937 21.7993 17.4957 21.5936 17.3015C21.4806 17.1962 21.3904 17.0688 21.3286 16.9273C21.2668 16.7857 21.2346 16.633 21.234 16.4786C21.2364 16.3137 21.278 16.1517 21.3552 16.006C21.4324 15.8603 21.5431 15.735 21.6782 15.6403C22.0085 15.4126 22.4065 15.3042 22.8067 15.3327C23.4298 15.3344 24.0442 15.4791 24.6024 15.7557V14.8444C24.0046 14.6316 23.3715 14.5357 22.7375 14.5618C21.8358 14.5618 21.1417 14.7733 20.6746 15.1905C20.4546 15.3755 20.279 15.6074 20.1605 15.8693C20.0421 16.1311 19.9838 16.4162 19.9901 16.7035C19.9696 17.1761 20.1298 17.6388 20.4381 17.9975C20.7591 18.3589 21.3571 18.7107 22.2184 19.0453C22.639 19.1797 23.0304 19.3923 23.372 19.672C23.4938 19.786 23.5909 19.9239 23.657 20.077C23.7232 20.2302 23.7571 20.3954 23.7565 20.5622C23.757 20.7387 23.7122 20.9123 23.6263 21.0665C23.5405 21.2207 23.4165 21.3503 23.2662 21.4428C22.9233 21.6495 22.5259 21.748 22.1261 21.7254C21.3736 21.7271 20.6342 21.528 19.9843 21.1486L19.9651 22.0945Z" fill="#595959"/>
</svg>
