<svg width="38" height="34" viewBox="0 0 38 34" fill="none" xmlns="http://www.w3.org/2000/svg">
<path opacity="0.8" d="M19.3546 0.148613C19.3378 0.149462 19.3211 0.151133 19.3045 0.15362L9.05047 1.69173C8.91713 1.7116 8.79697 1.78319 8.71602 1.891L1.02548 12.145C0.955876 12.2383 0.920039 12.3524 0.923861 12.4687C0.927682 12.5849 0.970934 12.6965 1.04651 12.7849L18.9911 33.8057C19.0394 33.8623 19.0994 33.9078 19.167 33.9389C19.2346 33.97 19.3082 33.986 19.3826 33.9858C19.457 33.9856 19.5305 33.9692 19.5979 33.9378C19.6654 33.9063 19.7252 33.8606 19.7732 33.8037L37.7177 12.5105C37.793 12.4211 37.8355 12.3085 37.838 12.1916C37.8406 12.0746 37.8031 11.9604 37.7318 11.8677L30.0412 1.88599C29.9603 1.78095 29.8419 1.71133 29.7108 1.69173L19.4567 0.15362C19.4229 0.148552 19.3887 0.146875 19.3546 0.148613ZM19.3856 1.27315L29.5566 11.9237H9.20569L19.3856 1.27315ZM18.6636 1.28617L8.89827 11.5032L9.35489 2.74918L9.41097 2.67407L18.6636 1.28617ZM20.1086 1.28817L29.3543 2.67407L29.4064 2.74116L29.863 11.5032L20.1086 1.28817ZM29.9571 3.45614L36.481 11.9237H30.3977L29.9571 3.45614ZM8.80213 3.48518L8.36353 11.9237H2.47347L8.80213 3.48518ZM2.09695 12.4364H8.44865L17.6963 30.7115L2.09695 12.4364ZM9.02344 12.4364H29.7388L19.669 32.3347L19.3776 32.6812L19.1062 32.3637L9.02344 12.4364ZM30.3126 12.4364H36.439L21.106 30.6304L30.3126 12.4364Z" fill="#595959"/>
</svg>
